<?xml version="1.0" encoding="UTF-8" standalone="no"?>
<svg
   xmlns:dc="http://purl.org/dc/elements/1.1/"
   xmlns:cc="http://creativecommons.org/ns#"
   xmlns:rdf="http://www.w3.org/1999/02/22-rdf-syntax-ns#"
   xmlns:svg="http://www.w3.org/2000/svg"
   xmlns="http://www.w3.org/2000/svg"
   xmlns:xlink="http://www.w3.org/1999/xlink"
   xmlns:sodipodi="http://sodipodi.sourceforge.net/DTD/sodipodi-0.dtd"
   xmlns:inkscape="http://www.inkscape.org/namespaces/inkscape"
   width="85.368523mm"
   height="12.349751mm"
   viewBox="0 0 85.368523 12.34975"
   version="1.1"
   id="svg8"
   inkscape:version="1.0.1 (0767f8302a, 2020-10-17)"
   sodipodi:docname="grow-unknown-banner.svg">
  <defs
     id="defs2">
    <clipPath
       clipPathUnits="userSpaceOnUse"
       id="clipPath286">
      <use
         x="0"
         y="0"
         xlink:href="#g282"
         id="use288"
         width="100%"
         height="100%" />
    </clipPath>
  </defs>
  <sodipodi:namedview
     id="base"
     pagecolor="#ffffff"
     bordercolor="#666666"
     borderopacity="1.0"
     inkscape:pageopacity="0.0"
     inkscape:pageshadow="2"
     inkscape:zoom="0.98994949"
     inkscape:cx="267.57799"
     inkscape:cy="265.44024"
     inkscape:document-units="mm"
     inkscape:current-layer="layer1"
     inkscape:document-rotation="0"
     showgrid="false"
     inkscape:window-width="1406"
     inkscape:window-height="1030"
     inkscape:window-x="0"
     inkscape:window-y="25"
     inkscape:window-maximized="0"
     fit-margin-top="0"
     fit-margin-left="0"
     fit-margin-right="0"
     fit-margin-bottom="0"
     showguides="false" />
  <metadata
     id="metadata5">
    <rdf:RDF>
      <cc:Work
         rdf:about="">
        <dc:format>image/svg+xml</dc:format>
        <dc:type
           rdf:resource="http://purl.org/dc/dcmitype/StillImage" />
        <dc:title></dc:title>
      </cc:Work>
    </rdf:RDF>
  </metadata>
  <g
     inkscape:label="Layer 1"
     inkscape:groupmode="layer"
     id="layer1"
     transform="translate(-34.203325,-29.907345)">
    <g
       id="g284"
       clip-path="url(#clipPath286)">
      <g
         inkscape:label="Clip"
         id="g282">
        <g
           id="g226"
           transform="translate(19.00992,15.798455)">
          <path
             style="fill:#b1f30f;stroke-width:0.0846667"
             d="m 16.056745,26.265017 c -0.806427,-0.425902 -1.116533,-1.533939 -0.633559,-2.263762 0.263401,-0.398026 0.553765,-0.558475 1.155009,-0.638233 0.385688,-0.05116 0.430695,-0.07456 0.293965,-0.152839 -0.748507,-0.428507 -1.227692,-1.236536 -1.296707,-2.186581 -0.113548,-1.563065 0.719546,-3.062461 2.036577,-3.665418 0.889585,-0.407265 2.176415,-0.449389 2.711551,-0.08876 0.350035,0.235888 0.479567,0.506578 0.481099,1.005371 0.0028,0.903801 -0.743995,1.52649 -1.334579,1.112828 -0.33293,-0.233193 -0.229998,-0.659987 0.192827,-0.799532 0.504563,-0.166521 0.450062,-0.624938 -0.08626,-0.725552 -0.751489,-0.14098 -1.628501,0.202428 -2.270905,0.88921 -0.528052,0.56453 -0.750599,1.078344 -0.800421,1.848001 -0.05298,0.818483 0.112182,1.247465 0.675178,1.753647 0.612,0.550241 0.694979,0.522543 0.817286,-0.272806 0.114062,-0.741732 0.456536,-1.502009 0.782675,-1.737504 0.559478,-0.403983 1.339072,-0.322676 1.625805,0.169561 0.195621,0.335825 0.210746,1.142401 0.02955,1.576056 -0.194355,0.465156 -0.806924,1.074961 -1.299961,1.294093 -0.309673,0.137636 -0.453989,0.25437 -0.481067,0.389124 -0.02127,0.105877 -0.08254,0.440153 -0.136135,0.742837 -0.113253,0.639561 -0.351956,1.225054 -0.616717,1.51269 -0.429449,0.466554 -1.219132,0.568225 -1.845214,0.23757 z m 1.066183,-0.73426 c 0.03009,-0.04869 -0.04874,-0.08516 -0.185503,-0.08582 -0.130806,-6.35e-4 -0.33308,-0.02251 -0.449497,-0.04862 -0.204291,-0.04581 -0.20594,-0.04282 -0.04732,0.08582 0.183749,0.149016 0.601855,0.178808 0.682317,0.04862 z m 0.719667,-1.862667 c 0,-0.189643 -0.03692,-0.215417 -0.423333,-0.295505 l -0.296334,-0.06142 0.288583,0.302168 c 0.29866,0.312719 0.431084,0.32954 0.431084,0.05476 z m 1.27291,-1.18689 c 0.397545,-0.21276 0.777597,-1.264313 0.563011,-1.557777 -0.235797,-0.322472 -0.62448,0.177922 -0.816629,1.051334 -0.138054,0.627525 -0.103089,0.697346 0.253618,0.506443 z m 24.516415,3.494057 c -0.102336,-0.333846 -0.332057,-1.69543 -0.339259,-2.010834 l -0.0077,-0.338666 h 1.185333 1.185334 l -0.0085,0.338666 c -0.01138,0.452996 -0.240899,1.929901 -0.31975,2.057486 -0.04155,0.06723 -0.330801,0.101515 -0.856371,0.101515 -0.682093,0 -0.800015,-0.02082 -0.83905,-0.148167 z m 14.453987,-2.511334 c -0.512529,-0.231319 -0.667813,-0.927118 -0.284356,-1.274141 0.225255,-0.203854 0.647546,-0.191345 0.878937,0.02604 0.106711,0.10025 0.222142,0.182273 0.256512,0.182273 0.219576,0 0.984928,-2.342778 0.984928,-3.01491 0,-0.225201 -0.04005,-0.293917 -0.193804,-0.332506 -0.223876,-0.05619 -0.570353,0.0598 -0.917921,0.30729 -0.286128,0.203742 -0.305181,0.299627 -0.07411,0.372967 0.280013,0.08887 0.423834,0.292513 0.423834,0.600118 0,0.717348 -1.280024,0.849522 -1.592183,0.164407 -0.440447,-0.966678 0.756151,-2.255898 2.105626,-2.268609 0.516219,-0.0049 0.889216,0.157694 0.985918,0.429676 0.119986,0.337471 0.18904,0.345177 0.705632,0.07875 0.850636,-0.438707 1.557995,-0.313681 1.823746,0.322349 0.161503,0.386531 0.151523,0.643286 -0.05706,1.468134 -0.09735,0.384949 -0.158068,0.71883 -0.13494,0.741959 0.02313,0.02313 0.178975,0.0043 0.346325,-0.04196 0.703746,-0.194314 1.320273,0.275715 1.320273,1.006554 0,0.340554 -0.0457,0.465946 -0.257946,0.707674 -0.491875,0.560216 -1.484795,0.723135 -2.011328,0.330021 -0.663404,-0.495302 -0.707186,-0.967361 -0.233609,-2.518742 0.325436,-1.066094 0.344551,-1.288079 0.122872,-1.426966 -0.17396,-0.10899 -0.75216,0.160517 -1.239723,0.577854 -0.305407,0.261416 -0.379584,0.401712 -0.615305,1.163764 -0.333366,1.077725 -0.785948,1.955882 -1.151849,2.234969 -0.340458,0.25968 -0.82831,0.326495 -1.190467,0.163042 z m 14.732,0 c -0.512529,-0.231319 -0.667813,-0.927118 -0.284356,-1.274141 0.225255,-0.203854 0.647546,-0.191345 0.878937,0.02604 0.106711,0.10025 0.222142,0.182273 0.256512,0.182273 0.219576,0 0.984928,-2.342778 0.984928,-3.01491 0,-0.225201 -0.04005,-0.293917 -0.193804,-0.332506 -0.223876,-0.05619 -0.570353,0.0598 -0.917921,0.30729 -0.286128,0.203742 -0.305181,0.299627 -0.07411,0.372967 0.280013,0.08887 0.423834,0.292513 0.423834,0.600118 0,0.717348 -1.280024,0.849522 -1.592183,0.164407 -0.440447,-0.966678 0.756151,-2.255898 2.105626,-2.268609 0.516219,-0.0049 0.889216,0.157694 0.985918,0.429676 0.119986,0.337471 0.18904,0.345177 0.705632,0.07875 0.850636,-0.438707 1.557995,-0.313681 1.823746,0.322349 0.161503,0.386531 0.151523,0.643286 -0.05706,1.468134 -0.09735,0.384949 -0.158068,0.71883 -0.13494,0.741959 0.02313,0.02313 0.178975,0.0043 0.346325,-0.04196 0.703746,-0.194314 1.320273,0.275715 1.320273,1.006554 0,0.340554 -0.0457,0.465946 -0.257946,0.707674 -0.491875,0.560216 -1.484795,0.723135 -2.011328,0.330021 -0.663404,-0.495302 -0.707186,-0.967361 -0.233609,-2.518742 0.325436,-1.066094 0.344551,-1.288079 0.122872,-1.426966 -0.17396,-0.10899 -0.75216,0.160517 -1.239723,0.577854 -0.305407,0.261416 -0.379584,0.401712 -0.615305,1.163764 -0.333366,1.077725 -0.785948,1.955882 -1.151849,2.234969 -0.340458,0.25968 -0.82831,0.326495 -1.190467,0.163042 z m 21.166667,0 c -0.512529,-0.231319 -0.667814,-0.927118 -0.284357,-1.274141 0.225256,-0.203854 0.647547,-0.191345 0.878938,0.02604 0.106711,0.10025 0.222141,0.182273 0.256512,0.182273 0.219576,0 0.984928,-2.342778 0.984928,-3.01491 0,-0.225201 -0.04005,-0.293917 -0.193805,-0.332506 -0.223875,-0.05619 -0.570352,0.0598 -0.91792,0.30729 -0.286128,0.203742 -0.305182,0.299627 -0.07411,0.372967 0.280013,0.08887 0.423835,0.292513 0.423835,0.600118 0,0.717348 -1.280025,0.849522 -1.592183,0.164407 -0.440448,-0.966678 0.75615,-2.255898 2.105625,-2.268609 0.51622,-0.0049 0.889216,0.157694 0.985918,0.429676 0.119987,0.337471 0.189041,0.345177 0.705631,0.07875 0.850637,-0.438707 1.557994,-0.313681 1.823745,0.322349 0.161502,0.386531 0.151528,0.643286 -0.05706,1.468134 -0.09735,0.384949 -0.158072,0.71883 -0.134941,0.741959 0.02313,0.02313 0.178977,0.0043 0.34632,-0.04196 0.70375,-0.194314 1.32028,0.275715 1.32028,1.006554 0,0.340554 -0.0457,0.465946 -0.25795,0.707674 -0.49188,0.560216 -1.484799,0.723135 -2.011325,0.330021 -0.663405,-0.495302 -0.707186,-0.967361 -0.233612,-2.518742 0.325433,-1.066094 0.344551,-1.288079 0.122868,-1.426966 -0.173956,-0.10899 -0.752153,0.160517 -1.239723,0.577854 -0.305403,0.261416 -0.37958,0.401712 -0.615301,1.163764 -0.333367,1.077725 -0.785948,1.955882 -1.15185,2.234969 -0.340458,0.25968 -0.82831,0.326495 -1.190466,0.163042 z M 23.033028,23.333149 c -0.849938,-0.518241 -0.765058,-1.502399 0.257794,-2.989048 0.216575,-0.314778 0.393773,-0.610053 0.393773,-0.656167 0,-0.04611 -0.09647,-0.08384 -0.214386,-0.08384 -0.117912,0 -0.351165,-0.05715 -0.51834,-0.127 -0.397113,-0.165925 -0.384224,-0.172895 -0.319386,0.172719 0.112647,0.600461 -0.446999,0.838863 -0.901734,0.384127 -0.28679,-0.286789 -0.328734,-0.698707 -0.116656,-1.145627 0.249703,-0.526212 0.770922,-0.63132 1.481121,-0.29868 l 0.425075,0.199094 0.380751,-0.184983 c 0.667753,-0.32442 1.138222,-0.191959 1.138222,0.320466 0,0.298917 -0.353253,0.977759 -0.882499,1.695884 -0.579929,0.786899 -0.825441,1.305701 -0.794391,1.678672 0.02068,0.248416 0.06422,0.316439 0.21639,0.33805 0.172873,0.02455 0.1905,-0.0075 0.1905,-0.346711 0,-0.431091 0.200915,-0.675178 0.555759,-0.675178 0.344015,0 0.586007,0.297526 0.575263,0.707278 -0.01093,0.416637 -0.223428,0.727405 -0.673316,0.984663 -0.408442,0.233559 -0.838474,0.243025 -1.19394,0.02628 z m 3.973514,0.08772 c -0.450734,-0.115058 -0.925878,-0.483691 -1.179433,-0.915045 -0.212717,-0.361876 -0.237514,-0.483619 -0.237514,-1.166062 0,-0.6464 0.03385,-0.834187 0.223111,-1.237828 0.301171,-0.642308 0.754676,-1.123311 1.319759,-1.39978 0.645604,-0.315865 1.605779,-0.322303 2.203368,-0.01477 1.322828,0.680751 1.45563,2.649937 0.269795,4.000528 -0.535792,0.610233 -1.744524,0.951104 -2.599086,0.73296 z m 1.689139,-1.070455 c 0.725012,-0.509558 1.055145,-1.671058 0.682616,-2.401634 -0.605211,-1.186891 -2.44287,-0.724707 -2.862867,0.720031 -0.239872,0.825132 -0.06393,1.470424 0.496932,1.822589 0.413623,0.259713 1.207841,0.193193 1.683319,-0.140986 z m -1.367774,-0.518796 c -0.09459,-0.06625 -0.171979,-0.186878 -0.171979,-0.268057 0,-0.08118 -0.03382,-0.183794 -0.07515,-0.228033 -0.170684,-0.182683 -0.186341,-0.453952 -0.03501,-0.606666 0.08387,-0.08464 0.220051,-0.258041 0.302616,-0.385331 0.135547,-0.208972 0.198547,-0.231436 0.649052,-0.231436 0.478675,0 0.509537,0.01339 0.760048,0.329684 0.301791,0.381042 0.332373,0.68025 0.09178,0.897983 -0.09313,0.08428 -0.169334,0.199824 -0.169334,0.256755 0,0.1978 -0.267689,0.323586 -0.722553,0.339527 -0.282484,0.0099 -0.523278,-0.03005 -0.629468,-0.104426 z m 5.282343,1.551662 c -0.150046,-0.06801 -0.307309,-0.230735 -0.37055,-0.383412 -0.128779,-0.310899 -0.132203,-0.898973 -0.0072,-1.227885 0.144034,-0.378831 0.111671,-0.474555 -0.160439,-0.474555 -0.617742,0 -1.020624,-0.427215 -1.021195,-1.082873 -7.62e-4,-0.895469 0.911504,-1.726921 1.910656,-1.741364 0.729661,-0.01055 1.126337,0.400003 1.01003,1.045356 -0.02946,0.163468 -0.24478,0.773304 -0.478487,1.355191 -0.233707,0.581887 -0.431205,1.210537 -0.438885,1.397 -0.01329,0.322625 -9.15e-4,0.340288 0.255811,0.365153 0.560556,0.05429 1.07831,-0.423577 1.343435,-1.239945 0.158292,-0.487408 0.258602,-0.569788 0.591938,-0.486126 0.307388,0.07715 0.339251,0.248614 0.168521,0.906873 -0.172927,0.666726 -0.110758,0.835402 0.307902,0.835402 0.354122,0 0.678444,-0.191978 1.063683,-0.629633 0.597639,-0.678954 0.942631,-1.951483 0.671306,-2.476167 -0.165551,-0.32014 -0.579018,-0.507617 -0.882737,-0.400256 -0.343367,0.121376 -0.337385,0.288722 0.01032,0.288722 0.835896,0 0.689546,1.328351 -0.163992,1.488475 -1.100721,0.206497 -1.622509,-1.349408 -0.739976,-2.206514 1.025498,-0.99595 2.736158,-0.136378 2.736158,1.374865 0,0.99045 -0.444788,1.988305 -1.196485,2.684245 -0.783109,0.72502 -1.575392,0.901354 -2.305543,0.513128 l -0.394582,-0.2098 -0.353769,0.184394 c -0.433421,0.225911 -1.192797,0.284342 -1.555966,0.119726 z m 0.424171,-3.639057 c 0.09266,-0.36758 -0.01094,-0.525188 -0.287533,-0.437401 -0.2048,0.065 -0.76496,0.531206 -0.76496,0.636654 0,0.03731 0.147461,0.04806 0.32769,0.02389 0.20291,-0.02722 0.350945,-0.0063 0.388759,0.05486 0.105239,0.170279 0.254073,0.04715 0.336044,-0.277999 z m 18.359008,3.629013 c -0.457003,-0.198672 -0.631995,-0.575719 -0.592266,-1.276128 0.02852,-0.502778 0.117309,-0.790894 0.560985,-1.820333 0.592542,-1.374845 0.712659,-1.93309 0.472938,-2.197979 -0.313371,-0.346272 -1.062927,-0.09502 -1.62646,0.545183 -0.539824,0.613274 -0.579974,1.15909 -0.07596,1.032589 0.201946,-0.05068 0.211039,-0.07703 0.163917,-0.474897 -0.06003,-0.506868 0.0502,-0.678243 0.436253,-0.678243 0.452098,0 0.682247,0.382094 0.540144,0.896748 -0.120315,0.435748 -0.393926,0.783408 -0.766849,0.974385 -1.135396,0.581446 -1.97173,-0.542044 -1.33402,-1.792059 0.204843,-0.401527 0.898925,-1.022705 1.41277,-1.264381 0.786761,-0.370035 1.759714,-0.21594 2.076977,0.328949 0.351022,0.602869 0.242741,1.297513 -0.433735,2.782496 -0.494346,1.085174 -0.670859,1.769193 -0.526265,2.039369 0.206921,0.386636 0.989165,0.121011 1.679566,-0.570326 0.210084,-0.210369 0.275308,-0.349095 0.275761,-0.586527 0.0011,-0.556307 0.335554,-1.733154 0.714072,-2.512321 0.725175,-1.492745 1.764629,-2.122807 2.282457,-1.383505 0.386734,0.552141 -0.152342,1.981366 -1.352623,3.586134 -0.244339,0.32668 -0.523808,0.66596 -0.621043,0.753956 -0.09723,0.088 -0.17679,0.240861 -0.17679,0.339699 0,0.247474 0.231479,0.55605 0.417123,0.55605 0.119697,0 0.163218,-0.08603 0.197535,-0.390484 0.05501,-0.488077 0.286086,-0.739229 0.670082,-0.728311 0.358488,0.01019 0.577926,0.273066 0.577926,0.69232 0,0.704867 -0.782615,1.322778 -1.577141,1.245225 -0.492314,-0.04806 -0.736678,-0.17333 -0.887381,-0.45492 -0.136219,-0.254527 -0.242986,-0.245618 -0.725781,0.06056 -0.669707,0.424716 -1.261263,0.523214 -1.782196,0.29675 z m 3.671428,-3.493975 c 0.390939,-0.59883 0.793071,-1.430678 0.793071,-1.640541 0,-0.182298 -0.0025,-0.182636 -0.177364,-0.02436 -0.16848,0.152472 -0.845676,1.470906 -0.963874,1.876565 -0.09144,0.313822 0.06865,0.2165 0.348167,-0.211667 z m 10.637238,3.493975 c -0.540812,-0.235106 -0.777315,-1.009301 -0.482489,-1.579432 0.151443,-0.292857 0.776197,-0.614202 1.023143,-0.526257 0.299106,0.10652 0.452513,0.307668 0.452513,0.593337 0,0.299188 -0.241632,0.621878 -0.465667,0.621878 -0.06985,0 -0.127,0.0381 -0.127,0.08467 0,0.162362 0.395235,0.08316 0.583143,-0.116863 0.300658,-0.320035 0.42768,-0.912531 0.518152,-2.416937 0.160473,-2.668414 0.429788,-3.552817 1.203769,-3.953058 0.309402,-0.159998 0.975748,-0.179751 1.242778,-0.03684 0.468925,0.250961 0.685658,1.187466 0.366108,1.581956 -0.483368,0.596729 -1.331317,0.420658 -1.390138,-0.288653 l -0.02614,-0.315271 -0.144844,0.264536 c -0.163727,0.299024 -0.295745,1.060087 -0.335966,1.936798 -0.02487,0.542174 -0.013,0.592666 0.139393,0.592666 0.121783,0 0.240172,-0.152277 0.440218,-0.566229 0.150499,-0.311426 0.36039,-0.61266 0.466425,-0.669408 1.056224,-0.565274 2.377826,0.250159 1.900732,1.172759 -0.21909,0.423672 -0.619331,0.484651 -0.89348,0.136127 -0.09651,-0.122697 -0.175478,-0.310948 -0.175478,-0.418337 0,-0.28774 -0.154393,-0.333464 -0.387268,-0.11469 -0.273247,0.256702 -0.258929,0.461123 0.05754,0.821563 l 0.26294,0.299472 -0.03011,1.066372 -0.03011,1.066372 0.200265,0.02833 c 0.3007,0.04255 0.371074,-0.08721 0.215949,-0.398166 -0.173464,-0.347717 -0.04324,-0.72429 0.29072,-0.84071 0.688262,-0.239929 1.219147,0.74674 0.761042,1.414423 -0.293557,0.427856 -0.602151,0.619885 -1.059503,0.659296 -0.474998,0.04093 -0.893837,-0.140569 -1.159002,-0.502249 -0.140479,-0.19161 -0.165453,-0.338221 -0.144223,-0.846667 0.05552,-1.329606 0.05394,-1.352911 -0.09785,-1.449611 -0.108928,-0.06939 -0.235721,-0.06123 -0.500008,0.03219 l -0.354075,0.125159 -0.145371,0.723062 c -0.158077,0.786258 -0.377499,1.289767 -0.687872,1.578465 -0.395929,0.368278 -0.977392,0.462027 -1.48824,0.239947 z m 15.57578,0.04763 c -0.450734,-0.115058 -0.925877,-0.483691 -1.179433,-0.915045 -0.212716,-0.361876 -0.237514,-0.483619 -0.237514,-1.166062 0,-0.6464 0.03385,-0.834187 0.223111,-1.237828 0.301172,-0.642308 0.754677,-1.123311 1.319759,-1.39978 0.645604,-0.315865 1.60578,-0.322303 2.203368,-0.01477 1.322828,0.680751 1.45563,2.649937 0.269795,4.000528 -0.535792,0.610233 -1.744523,0.951104 -2.599086,0.73296 z m 1.68914,-1.070455 c 0.725011,-0.509558 1.055145,-1.671058 0.682615,-2.401634 -0.60521,-1.186891 -2.44287,-0.724707 -2.862867,0.720031 -0.239872,0.825132 -0.06393,1.470424 0.496932,1.822589 0.413623,0.259713 1.207841,0.193193 1.68332,-0.140986 z M 81.59924,21.831613 c -0.09459,-0.06625 -0.171978,-0.186878 -0.171978,-0.268057 0,-0.08118 -0.03382,-0.183794 -0.07515,-0.228033 -0.170685,-0.182683 -0.186341,-0.453952 -0.03501,-0.606666 0.08387,-0.08464 0.22005,-0.258041 0.302615,-0.385331 0.135547,-0.208972 0.198548,-0.231436 0.649052,-0.231436 0.478675,0 0.509537,0.01339 0.760049,0.329684 0.301791,0.381042 0.332372,0.68025 0.09178,0.897983 -0.09313,0.08428 -0.169333,0.199824 -0.169333,0.256755 0,0.1978 -0.26769,0.323586 -0.722554,0.339527 -0.282484,0.0099 -0.523277,-0.03005 -0.629468,-0.104426 z m 5.282343,1.551662 c -0.150045,-0.06801 -0.307309,-0.230735 -0.370549,-0.383412 -0.128779,-0.310899 -0.132204,-0.898973 -0.0072,-1.227885 0.144034,-0.378831 0.111671,-0.474555 -0.160439,-0.474555 -0.617741,0 -1.020624,-0.427215 -1.021195,-1.082873 -7.62e-4,-0.895469 0.911504,-1.726921 1.910657,-1.741364 0.72966,-0.01055 1.126336,0.400003 1.010029,1.045356 -0.02946,0.163468 -0.24478,0.773304 -0.478486,1.355191 -0.233707,0.581887 -0.431206,1.210537 -0.438886,1.397 -0.01329,0.322625 -9.14e-4,0.340288 0.255811,0.365153 0.560556,0.05429 1.078311,-0.423577 1.343436,-1.239945 0.158292,-0.487408 0.258601,-0.569788 0.591937,-0.486126 0.307389,0.07715 0.339251,0.248614 0.168521,0.906873 -0.172927,0.666726 -0.110758,0.835402 0.307902,0.835402 0.354122,0 0.678444,-0.191978 1.063684,-0.629633 0.597639,-0.678954 0.94263,-1.951483 0.671305,-2.476167 -0.165551,-0.32014 -0.579018,-0.507617 -0.882737,-0.400256 -0.343366,0.121376 -0.337385,0.288722 0.01032,0.288722 0.835896,0 0.689547,1.328351 -0.163991,1.488475 -1.100721,0.206497 -1.62251,-1.349408 -0.739977,-2.206514 1.025498,-0.99595 2.736158,-0.136378 2.736158,1.374865 0,0.99045 -0.444788,1.988305 -1.196484,2.684245 -0.78311,0.72502 -1.575393,0.901354 -2.305544,0.513128 l -0.394581,-0.2098 -0.35377,0.184394 c -0.43342,0.225911 -1.192797,0.284342 -1.555966,0.119726 z m 0.424171,-3.639057 c 0.09267,-0.36758 -0.01094,-0.525188 -0.287532,-0.437401 -0.204801,0.065 -0.76496,0.531206 -0.76496,0.636654 0,0.03731 0.14746,0.04806 0.327689,0.02389 0.20291,-0.02722 0.350945,-0.0063 0.388759,0.05486 0.105239,0.170279 0.254074,0.04715 0.336044,-0.277999 z m -43.641193,3.033224 c -0.169643,-0.204407 0.02308,-1.64596 0.294111,-2.199927 0.124812,-0.255107 0.584255,-0.834039 1.090598,-1.374232 1.018367,-1.08645 1.175799,-1.423698 0.984144,-2.108222 -0.213896,-0.76396 -1.025754,-1.248674 -1.760192,-1.05091 -0.536246,0.144396 -0.649493,0.275535 -0.650689,0.753492 -0.0013,0.505549 -0.166329,0.717092 -0.913865,1.171197 -0.509165,0.309301 -0.564273,0.314806 -0.601657,0.0601 -0.03202,-0.218145 -0.195209,-0.242112 -0.259937,-0.03817 -0.03037,0.0957 -0.08523,0.173994 -0.121903,0.173994 -0.12137,0 -0.936827,-0.917464 -1.027554,-1.156092 -0.179761,-0.472808 0.105375,-0.960574 0.561528,-0.960574 0.222199,0 0.310699,-0.05565 0.45194,-0.284182 0.263397,-0.426186 0.970092,-1.051917 1.424919,-1.261671 0.342846,-0.158111 0.554417,-0.186115 1.418924,-0.187816 0.938735,-0.0018 1.051963,0.01567 1.488892,0.230389 1.087954,0.534637 1.767791,1.560661 1.838029,2.773991 0.06821,1.17827 -0.226411,1.774172 -1.632195,3.301289 -0.743569,0.807746 -0.890392,1.083731 -0.890392,1.67368 0,0.225017 -0.04572,0.45484 -0.1016,0.51072 -0.157452,0.157452 -1.45831,0.135366 -1.593101,-0.02705 z m -2.453966,-1.734019 c -0.306414,-0.306414 -0.257596,-0.811997 0.135604,-1.404378 0.348811,-0.525506 0.504127,-0.672294 0.580537,-0.54866 0.136203,0.22038 0.384526,1.075922 0.384526,1.324797 0,0.621569 -0.70496,1.023948 -1.100667,0.628241 z m 1.684687,-0.532205 c -0.209634,-0.14103 -0.338006,-0.330539 -0.473154,-0.6985 -0.335431,-0.913261 -0.270786,-1.008998 0.498188,-0.737795 0.617059,0.217626 0.917004,0.50076 0.97234,0.917843 0.04039,0.304418 0.01781,0.368473 -0.186474,0.529166 -0.295131,0.23215 -0.452992,0.230064 -0.8109,-0.01071 z m -3.205388,-0.49976 c -0.236662,-0.254026 -0.216399,-0.525047 0.0626,-0.837303 0.160714,-0.17987 0.355171,-0.286412 0.613833,-0.336315 0.533139,-0.102857 1.182933,-0.09797 1.182933,0.0089 0,0.144859 -0.660489,1.074621 -0.865305,1.21808 -0.281139,0.196917 -0.786152,0.16981 -0.994063,-0.05336 z m 3.468034,-1.095215 c -0.256116,-0.09556 -0.534186,-0.194358 -0.617933,-0.21956 -0.25808,-0.07766 -0.12265,-0.297107 0.364094,-0.589958 0.774617,-0.466052 1.260579,-0.462579 1.571028,0.01123 0.191318,0.291988 0.09886,0.60453 -0.239961,0.811115 -0.339775,0.207169 -0.492458,0.205352 -1.077228,-0.01282 z m -3.423904,-0.508605 c -0.655844,-0.515887 -0.291914,-1.286577 0.534342,-1.13157 0.199508,0.03743 0.425977,0.199468 0.741714,0.530702 0.249983,0.262253 0.454515,0.5213 0.454515,0.57566 0,0.115861 -0.456765,0.203413 -1.068082,0.204728 -0.314785,6.77e-4 -0.495745,-0.04836 -0.662489,-0.17952 z m 7.840758,-2.827377 c -0.25879,-0.11239 -0.277527,-0.145409 -0.226327,-0.398853 0.12253,-0.606541 0.595903,-1.007063 1.254819,-1.061706 0.60113,-0.04985 0.819988,0.06844 0.819988,0.443204 0,0.362406 -0.33543,0.77597 -0.800831,0.987372 -0.410181,0.186319 -0.670513,0.19377 -1.047649,0.02998 z"
             id="path230" />
          <path
             style="fill:#6357a1;stroke-width:0.0846667"
             d="m 16.056745,26.265017 c -0.806427,-0.425902 -1.116533,-1.533939 -0.633559,-2.263762 0.263401,-0.398026 0.553765,-0.558475 1.155009,-0.638233 0.385688,-0.05116 0.430695,-0.07456 0.293965,-0.152839 -0.748507,-0.428507 -1.227692,-1.236536 -1.296707,-2.186581 -0.113548,-1.563065 0.719546,-3.062461 2.036577,-3.665418 0.889585,-0.407265 2.176415,-0.449389 2.711551,-0.08876 0.350035,0.235888 0.479567,0.506578 0.481099,1.005371 0.0028,0.903801 -0.743995,1.52649 -1.334579,1.112828 -0.33293,-0.233193 -0.229998,-0.659987 0.192827,-0.799532 0.504563,-0.166521 0.450062,-0.624938 -0.08626,-0.725552 -0.751489,-0.14098 -1.628501,0.202428 -2.270905,0.88921 -0.528052,0.56453 -0.750599,1.078344 -0.800421,1.848001 -0.05298,0.818483 0.112182,1.247465 0.675178,1.753647 0.612,0.550241 0.694979,0.522543 0.817286,-0.272806 0.114062,-0.741732 0.456536,-1.502009 0.782675,-1.737504 0.559478,-0.403983 1.339072,-0.322676 1.625805,0.169561 0.195621,0.335825 0.210746,1.142401 0.02955,1.576056 -0.194355,0.465156 -0.806924,1.074961 -1.299961,1.294093 -0.309673,0.137636 -0.453989,0.25437 -0.481067,0.389124 -0.02127,0.105877 -0.08254,0.440153 -0.136135,0.742837 -0.113253,0.639561 -0.351956,1.225054 -0.616717,1.51269 -0.429449,0.466554 -1.219132,0.568225 -1.845214,0.23757 z m 1.066183,-0.73426 c 0.03009,-0.04869 -0.04874,-0.08516 -0.185503,-0.08582 -0.130806,-6.35e-4 -0.33308,-0.02251 -0.449497,-0.04862 -0.204291,-0.04581 -0.20594,-0.04282 -0.04732,0.08582 0.183749,0.149016 0.601855,0.178808 0.682317,0.04862 z m 0.719667,-1.862667 c 0,-0.189643 -0.03692,-0.215417 -0.423333,-0.295505 l -0.296334,-0.06142 0.288583,0.302168 c 0.29866,0.312719 0.431084,0.32954 0.431084,0.05476 z m 1.27291,-1.18689 c 0.397545,-0.21276 0.777597,-1.264313 0.563011,-1.557777 -0.235797,-0.322472 -0.62448,0.177922 -0.816629,1.051334 -0.138054,0.627525 -0.103089,0.697346 0.253618,0.506443 z m 38.970402,0.982723 c -0.512529,-0.231319 -0.667813,-0.927118 -0.284356,-1.274141 0.225255,-0.203854 0.647546,-0.191345 0.878937,0.02604 0.106711,0.10025 0.222142,0.182273 0.256512,0.182273 0.219576,0 0.984928,-2.342778 0.984928,-3.01491 0,-0.225201 -0.04005,-0.293917 -0.193804,-0.332506 -0.223876,-0.05619 -0.570353,0.0598 -0.917921,0.30729 -0.286128,0.203742 -0.305181,0.299627 -0.07411,0.372967 0.280013,0.08887 0.423834,0.292513 0.423834,0.600118 0,0.717348 -1.280024,0.849522 -1.592183,0.164407 -0.440447,-0.966678 0.756151,-2.255898 2.105626,-2.268609 0.516219,-0.0049 0.889216,0.157694 0.985918,0.429676 0.119986,0.337471 0.18904,0.345177 0.705632,0.07875 0.850636,-0.438707 1.557995,-0.313681 1.823746,0.322349 0.161503,0.386531 0.151523,0.643286 -0.05706,1.468134 -0.09735,0.384949 -0.158068,0.71883 -0.13494,0.741959 0.02313,0.02313 0.178975,0.0043 0.346325,-0.04196 0.703746,-0.194314 1.320273,0.275715 1.320273,1.006554 0,0.340554 -0.0457,0.465946 -0.257946,0.707674 -0.491875,0.560216 -1.484795,0.723135 -2.011328,0.330021 -0.663404,-0.495302 -0.707186,-0.967361 -0.233609,-2.518742 0.325436,-1.066094 0.344551,-1.288079 0.122872,-1.426966 -0.17396,-0.10899 -0.75216,0.160517 -1.239723,0.577854 -0.305407,0.261416 -0.379584,0.401712 -0.615305,1.163764 -0.333366,1.077725 -0.785948,1.955882 -1.151849,2.234969 -0.340458,0.25968 -0.82831,0.326495 -1.190467,0.163042 z m 14.732,0 c -0.512529,-0.231319 -0.667813,-0.927118 -0.284356,-1.274141 0.225255,-0.203854 0.647546,-0.191345 0.878937,0.02604 0.106711,0.10025 0.222142,0.182273 0.256512,0.182273 0.219576,0 0.984928,-2.342778 0.984928,-3.01491 0,-0.225201 -0.04005,-0.293917 -0.193804,-0.332506 -0.223876,-0.05619 -0.570353,0.0598 -0.917921,0.30729 -0.286128,0.203742 -0.305181,0.299627 -0.07411,0.372967 0.280013,0.08887 0.423834,0.292513 0.423834,0.600118 0,0.717348 -1.280024,0.849522 -1.592183,0.164407 -0.440447,-0.966678 0.756151,-2.255898 2.105626,-2.268609 0.516219,-0.0049 0.889216,0.157694 0.985918,0.429676 0.119986,0.337471 0.18904,0.345177 0.705632,0.07875 0.850636,-0.438707 1.557995,-0.313681 1.823746,0.322349 0.161503,0.386531 0.151523,0.643286 -0.05706,1.468134 -0.09735,0.384949 -0.158068,0.71883 -0.13494,0.741959 0.02313,0.02313 0.178975,0.0043 0.346325,-0.04196 0.703746,-0.194314 1.320273,0.275715 1.320273,1.006554 0,0.340554 -0.0457,0.465946 -0.257946,0.707674 -0.491875,0.560216 -1.484795,0.723135 -2.011328,0.330021 -0.663404,-0.495302 -0.707186,-0.967361 -0.233609,-2.518742 0.325436,-1.066094 0.344551,-1.288079 0.122872,-1.426966 -0.17396,-0.10899 -0.75216,0.160517 -1.239723,0.577854 -0.305407,0.261416 -0.379584,0.401712 -0.615305,1.163764 -0.333366,1.077725 -0.785948,1.955882 -1.151849,2.234969 -0.340458,0.25968 -0.82831,0.326495 -1.190467,0.163042 z m 21.166667,0 c -0.512529,-0.231319 -0.667814,-0.927118 -0.284357,-1.274141 0.225256,-0.203854 0.647547,-0.191345 0.878938,0.02604 0.106711,0.10025 0.222141,0.182273 0.256512,0.182273 0.219576,0 0.984928,-2.342778 0.984928,-3.01491 0,-0.225201 -0.04005,-0.293917 -0.193805,-0.332506 -0.223875,-0.05619 -0.570352,0.0598 -0.91792,0.30729 -0.286128,0.203742 -0.305182,0.299627 -0.07411,0.372967 0.280013,0.08887 0.423835,0.292513 0.423835,0.600118 0,0.717348 -1.280025,0.849522 -1.592183,0.164407 -0.440448,-0.966678 0.75615,-2.255898 2.105625,-2.268609 0.51622,-0.0049 0.889216,0.157694 0.985918,0.429676 0.119987,0.337471 0.189041,0.345177 0.705631,0.07875 0.850637,-0.438707 1.557994,-0.313681 1.823745,0.322349 0.161502,0.386531 0.151528,0.643286 -0.05706,1.468134 -0.09735,0.384949 -0.158072,0.71883 -0.134941,0.741959 0.02313,0.02313 0.178977,0.0043 0.34632,-0.04196 0.70375,-0.194314 1.32028,0.275715 1.32028,1.006554 0,0.340554 -0.0457,0.465946 -0.25795,0.707674 -0.49188,0.560216 -1.484799,0.723135 -2.011325,0.330021 -0.663405,-0.495302 -0.707186,-0.967361 -0.233612,-2.518742 0.325433,-1.066094 0.344551,-1.288079 0.122868,-1.426966 -0.173956,-0.10899 -0.752153,0.160517 -1.239723,0.577854 -0.305403,0.261416 -0.37958,0.401712 -0.615301,1.163764 -0.333367,1.077725 -0.785948,1.955882 -1.15185,2.234969 -0.340458,0.25968 -0.82831,0.326495 -1.190466,0.163042 z M 23.033028,23.333149 c -0.849938,-0.518241 -0.765058,-1.502399 0.257794,-2.989048 0.216575,-0.314778 0.393773,-0.610053 0.393773,-0.656167 0,-0.04611 -0.09647,-0.08384 -0.214386,-0.08384 -0.117912,0 -0.351165,-0.05715 -0.51834,-0.127 -0.397113,-0.165925 -0.384224,-0.172895 -0.319386,0.172719 0.112647,0.600461 -0.446999,0.838863 -0.901734,0.384127 -0.28679,-0.286789 -0.328734,-0.698707 -0.116656,-1.145627 0.249703,-0.526212 0.770922,-0.63132 1.481121,-0.29868 l 0.425075,0.199094 0.380751,-0.184983 c 0.667753,-0.32442 1.138222,-0.191959 1.138222,0.320466 0,0.298917 -0.353253,0.977759 -0.882499,1.695884 -0.579929,0.786899 -0.825441,1.305701 -0.794391,1.678672 0.02068,0.248416 0.06422,0.316439 0.21639,0.33805 0.172873,0.02455 0.1905,-0.0075 0.1905,-0.346711 0,-0.431091 0.200915,-0.675178 0.555759,-0.675178 0.344015,0 0.586007,0.297526 0.575263,0.707278 -0.01093,0.416637 -0.223428,0.727405 -0.673316,0.984663 -0.408442,0.233559 -0.838474,0.243025 -1.19394,0.02628 z m 3.973514,0.08772 c -0.450734,-0.115058 -0.925878,-0.483691 -1.179433,-0.915045 -0.212717,-0.361876 -0.237514,-0.483619 -0.237514,-1.166062 0,-0.6464 0.03385,-0.834187 0.223111,-1.237828 0.301171,-0.642308 0.754676,-1.123311 1.319759,-1.39978 0.645604,-0.315865 1.605779,-0.322303 2.203368,-0.01477 1.322828,0.680751 1.45563,2.649937 0.269795,4.000528 -0.535792,0.610233 -1.744524,0.951104 -2.599086,0.73296 z m 1.689139,-1.070455 c 0.725012,-0.509558 1.055145,-1.671058 0.682616,-2.401634 -0.605211,-1.186891 -2.44287,-0.724707 -2.862867,0.720031 -0.239872,0.825132 -0.06393,1.470424 0.496932,1.822589 0.413623,0.259713 1.207841,0.193193 1.683319,-0.140986 z m -1.367774,-0.518796 c -0.09459,-0.06625 -0.171979,-0.186878 -0.171979,-0.268057 0,-0.08118 -0.03382,-0.183794 -0.07515,-0.228033 -0.170684,-0.182683 -0.186341,-0.453952 -0.03501,-0.606666 0.08387,-0.08464 0.220051,-0.258041 0.302616,-0.385331 0.135547,-0.208972 0.198547,-0.231436 0.649052,-0.231436 0.478675,0 0.509537,0.01339 0.760048,0.329684 0.301791,0.381042 0.332373,0.68025 0.09178,0.897983 -0.09313,0.08428 -0.169334,0.199824 -0.169334,0.256755 0,0.1978 -0.267689,0.323586 -0.722553,0.339527 -0.282484,0.0099 -0.523278,-0.03005 -0.629468,-0.104426 z m 5.282343,1.551662 c -0.150046,-0.06801 -0.307309,-0.230735 -0.37055,-0.383412 -0.128779,-0.310899 -0.132203,-0.898973 -0.0072,-1.227885 0.144034,-0.378831 0.111671,-0.474555 -0.160439,-0.474555 -0.617742,0 -1.020624,-0.427215 -1.021195,-1.082873 -7.62e-4,-0.895469 0.911504,-1.726921 1.910656,-1.741364 0.729661,-0.01055 1.126337,0.400003 1.01003,1.045356 -0.02946,0.163468 -0.24478,0.773304 -0.478487,1.355191 -0.233707,0.581887 -0.431205,1.210537 -0.438885,1.397 -0.01329,0.322625 -9.15e-4,0.340288 0.255811,0.365153 0.560556,0.05429 1.07831,-0.423577 1.343435,-1.239945 0.158292,-0.487408 0.258602,-0.569788 0.591938,-0.486126 0.307388,0.07715 0.339251,0.248614 0.168521,0.906873 -0.172927,0.666726 -0.110758,0.835402 0.307902,0.835402 0.354122,0 0.678444,-0.191978 1.063683,-0.629633 0.597639,-0.678954 0.942631,-1.951483 0.671306,-2.476167 -0.165551,-0.32014 -0.579018,-0.507617 -0.882737,-0.400256 -0.343367,0.121376 -0.337385,0.288722 0.01032,0.288722 0.835896,0 0.689546,1.328351 -0.163992,1.488475 -1.100721,0.206497 -1.622509,-1.349408 -0.739976,-2.206514 1.025498,-0.99595 2.736158,-0.136378 2.736158,1.374865 0,0.99045 -0.444788,1.988305 -1.196485,2.684245 -0.783109,0.72502 -1.575392,0.901354 -2.305543,0.513128 l -0.394582,-0.2098 -0.353769,0.184394 c -0.433421,0.225911 -1.192797,0.284342 -1.555966,0.119726 z m 0.424171,-3.639057 c 0.09266,-0.36758 -0.01094,-0.525188 -0.287533,-0.437401 -0.2048,0.065 -0.76496,0.531206 -0.76496,0.636654 0,0.03731 0.147461,0.04806 0.32769,0.02389 0.20291,-0.02722 0.350945,-0.0063 0.388759,0.05486 0.105239,0.170279 0.254073,0.04715 0.336044,-0.277999 z m 18.359008,3.629013 c -0.457003,-0.198672 -0.631995,-0.575719 -0.592266,-1.276128 0.02852,-0.502778 0.117309,-0.790894 0.560985,-1.820333 0.592542,-1.374845 0.712659,-1.93309 0.472938,-2.197979 -0.313371,-0.346272 -1.062927,-0.09502 -1.62646,0.545183 -0.539824,0.613274 -0.579974,1.15909 -0.07596,1.032589 0.201946,-0.05068 0.211039,-0.07703 0.163917,-0.474897 -0.06003,-0.506868 0.0502,-0.678243 0.436253,-0.678243 0.452098,0 0.682247,0.382094 0.540144,0.896748 -0.120315,0.435748 -0.393926,0.783408 -0.766849,0.974385 -1.135396,0.581446 -1.97173,-0.542044 -1.33402,-1.792059 0.204843,-0.401527 0.898925,-1.022705 1.41277,-1.264381 0.786761,-0.370035 1.759714,-0.21594 2.076977,0.328949 0.351022,0.602869 0.242741,1.297513 -0.433735,2.782496 -0.494346,1.085174 -0.670859,1.769193 -0.526265,2.039369 0.206921,0.386636 0.989165,0.121011 1.679566,-0.570326 0.210084,-0.210369 0.275308,-0.349095 0.275761,-0.586527 0.0011,-0.556307 0.335554,-1.733154 0.714072,-2.512321 0.725175,-1.492745 1.764629,-2.122807 2.282457,-1.383505 0.386734,0.552141 -0.152342,1.981366 -1.352623,3.586134 -0.244339,0.32668 -0.523808,0.66596 -0.621043,0.753956 -0.09723,0.088 -0.17679,0.240861 -0.17679,0.339699 0,0.247474 0.231479,0.55605 0.417123,0.55605 0.119697,0 0.163218,-0.08603 0.197535,-0.390484 0.05501,-0.488077 0.286086,-0.739229 0.670082,-0.728311 0.358488,0.01019 0.577926,0.273066 0.577926,0.69232 0,0.704867 -0.782615,1.322778 -1.577141,1.245225 -0.492314,-0.04806 -0.736678,-0.17333 -0.887381,-0.45492 -0.136219,-0.254527 -0.242986,-0.245618 -0.725781,0.06056 -0.669707,0.424716 -1.261263,0.523214 -1.782196,0.29675 z m 3.671428,-3.493975 c 0.390939,-0.59883 0.793071,-1.430678 0.793071,-1.640541 0,-0.182298 -0.0025,-0.182636 -0.177364,-0.02436 -0.16848,0.152472 -0.845676,1.470906 -0.963874,1.876565 -0.09144,0.313822 0.06865,0.2165 0.348167,-0.211667 z m 10.637238,3.493975 c -0.540812,-0.235106 -0.777315,-1.009301 -0.482489,-1.579432 0.151443,-0.292857 0.776197,-0.614202 1.023143,-0.526257 0.299106,0.10652 0.452513,0.307668 0.452513,0.593337 0,0.299188 -0.241632,0.621878 -0.465667,0.621878 -0.06985,0 -0.127,0.0381 -0.127,0.08467 0,0.162362 0.395235,0.08316 0.583143,-0.116863 0.300658,-0.320035 0.42768,-0.912531 0.518152,-2.416937 0.160473,-2.668414 0.429788,-3.552817 1.203769,-3.953058 0.309402,-0.159998 0.975748,-0.179751 1.242778,-0.03684 0.468925,0.250961 0.685658,1.187466 0.366108,1.581956 -0.483368,0.596729 -1.331317,0.420658 -1.390138,-0.288653 l -0.02614,-0.315271 -0.144844,0.264536 c -0.163727,0.299024 -0.295745,1.060087 -0.335966,1.936798 -0.02487,0.542174 -0.013,0.592666 0.139393,0.592666 0.121783,0 0.240172,-0.152277 0.440218,-0.566229 0.150499,-0.311426 0.36039,-0.61266 0.466425,-0.669408 1.056224,-0.565274 2.377826,0.250159 1.900732,1.172759 -0.21909,0.423672 -0.619331,0.484651 -0.89348,0.136127 -0.09651,-0.122697 -0.175478,-0.310948 -0.175478,-0.418337 0,-0.28774 -0.154393,-0.333464 -0.387268,-0.11469 -0.273247,0.256702 -0.258929,0.461123 0.05754,0.821563 l 0.26294,0.299472 -0.03011,1.066372 -0.03011,1.066372 0.200265,0.02833 c 0.3007,0.04255 0.371074,-0.08721 0.215949,-0.398166 -0.173464,-0.347717 -0.04324,-0.72429 0.29072,-0.84071 0.688262,-0.239929 1.219147,0.74674 0.761042,1.414423 -0.293557,0.427856 -0.602151,0.619885 -1.059503,0.659296 -0.474998,0.04093 -0.893837,-0.140569 -1.159002,-0.502249 -0.140479,-0.19161 -0.165453,-0.338221 -0.144223,-0.846667 0.05552,-1.329606 0.05394,-1.352911 -0.09785,-1.449611 -0.108928,-0.06939 -0.235721,-0.06123 -0.500008,0.03219 l -0.354075,0.125159 -0.145371,0.723062 c -0.158077,0.786258 -0.377499,1.289767 -0.687872,1.578465 -0.395929,0.368278 -0.977392,0.462027 -1.48824,0.239947 z m 15.57578,0.04763 c -0.450734,-0.115058 -0.925877,-0.483691 -1.179433,-0.915045 -0.212716,-0.361876 -0.237514,-0.483619 -0.237514,-1.166062 0,-0.6464 0.03385,-0.834187 0.223111,-1.237828 0.301172,-0.642308 0.754677,-1.123311 1.319759,-1.39978 0.645604,-0.315865 1.60578,-0.322303 2.203368,-0.01477 1.322828,0.680751 1.45563,2.649937 0.269795,4.000528 -0.535792,0.610233 -1.744523,0.951104 -2.599086,0.73296 z m 1.68914,-1.070455 c 0.725011,-0.509558 1.055145,-1.671058 0.682615,-2.401634 -0.60521,-1.186891 -2.44287,-0.724707 -2.862867,0.720031 -0.239872,0.825132 -0.06393,1.470424 0.496932,1.822589 0.413623,0.259713 1.207841,0.193193 1.68332,-0.140986 z M 81.59924,21.831613 c -0.09459,-0.06625 -0.171978,-0.186878 -0.171978,-0.268057 0,-0.08118 -0.03382,-0.183794 -0.07515,-0.228033 -0.170685,-0.182683 -0.186341,-0.453952 -0.03501,-0.606666 0.08387,-0.08464 0.22005,-0.258041 0.302615,-0.385331 0.135547,-0.208972 0.198548,-0.231436 0.649052,-0.231436 0.478675,0 0.509537,0.01339 0.760049,0.329684 0.301791,0.381042 0.332372,0.68025 0.09178,0.897983 -0.09313,0.08428 -0.169333,0.199824 -0.169333,0.256755 0,0.1978 -0.26769,0.323586 -0.722554,0.339527 -0.282484,0.0099 -0.523277,-0.03005 -0.629468,-0.104426 z m 5.282343,1.551662 c -0.150045,-0.06801 -0.307309,-0.230735 -0.370549,-0.383412 -0.128779,-0.310899 -0.132204,-0.898973 -0.0072,-1.227885 0.144034,-0.378831 0.111671,-0.474555 -0.160439,-0.474555 -0.617741,0 -1.020624,-0.427215 -1.021195,-1.082873 -7.62e-4,-0.895469 0.911504,-1.726921 1.910657,-1.741364 0.72966,-0.01055 1.126336,0.400003 1.010029,1.045356 -0.02946,0.163468 -0.24478,0.773304 -0.478486,1.355191 -0.233707,0.581887 -0.431206,1.210537 -0.438886,1.397 -0.01329,0.322625 -9.14e-4,0.340288 0.255811,0.365153 0.560556,0.05429 1.078311,-0.423577 1.343436,-1.239945 0.158292,-0.487408 0.258601,-0.569788 0.591937,-0.486126 0.307389,0.07715 0.339251,0.248614 0.168521,0.906873 -0.172927,0.666726 -0.110758,0.835402 0.307902,0.835402 0.354122,0 0.678444,-0.191978 1.063684,-0.629633 0.597639,-0.678954 0.94263,-1.951483 0.671305,-2.476167 -0.165551,-0.32014 -0.579018,-0.507617 -0.882737,-0.400256 -0.343366,0.121376 -0.337385,0.288722 0.01032,0.288722 0.835896,0 0.689547,1.328351 -0.163991,1.488475 -1.100721,0.206497 -1.62251,-1.349408 -0.739977,-2.206514 1.025498,-0.99595 2.736158,-0.136378 2.736158,1.374865 0,0.99045 -0.444788,1.988305 -1.196484,2.684245 -0.78311,0.72502 -1.575393,0.901354 -2.305544,0.513128 l -0.394581,-0.2098 -0.35377,0.184394 c -0.43342,0.225911 -1.192797,0.284342 -1.555966,0.119726 z m 0.424171,-3.639057 c 0.09267,-0.36758 -0.01094,-0.525188 -0.287532,-0.437401 -0.204801,0.065 -0.76496,0.531206 -0.76496,0.636654 0,0.03731 0.14746,0.04806 0.327689,0.02389 0.20291,-0.02722 0.350945,-0.0063 0.388759,0.05486 0.105239,0.170279 0.254074,0.04715 0.336044,-0.277999 z m -46.095159,1.299205 c -0.306414,-0.306414 -0.257596,-0.811997 0.135604,-1.404378 0.348811,-0.525506 0.504127,-0.672294 0.580537,-0.54866 0.136203,0.22038 0.384526,1.075922 0.384526,1.324797 0,0.621569 -0.70496,1.023948 -1.100667,0.628241 z m 1.684687,-0.532205 c -0.209634,-0.14103 -0.338006,-0.330539 -0.473154,-0.6985 -0.335431,-0.913261 -0.270786,-1.008998 0.498188,-0.737795 0.617059,0.217626 0.917004,0.50076 0.97234,0.917843 0.04039,0.304418 0.01781,0.368473 -0.186474,0.529166 -0.295131,0.23215 -0.452992,0.230064 -0.8109,-0.01071 z m -3.205388,-0.49976 c -0.236662,-0.254026 -0.216399,-0.525047 0.0626,-0.837303 0.160714,-0.17987 0.355171,-0.286412 0.613833,-0.336315 0.533139,-0.102857 1.182933,-0.09797 1.182933,0.0089 0,0.144859 -0.660489,1.074621 -0.865305,1.21808 -0.281139,0.196917 -0.786152,0.16981 -0.994063,-0.05336 z m 3.468034,-1.095215 c -0.256116,-0.09556 -0.534186,-0.194358 -0.617933,-0.21956 -0.25808,-0.07766 -0.12265,-0.297107 0.364094,-0.589958 0.774617,-0.466052 1.260579,-0.462579 1.571028,0.01123 0.191318,0.291988 0.09886,0.60453 -0.239961,0.811115 -0.339775,0.207169 -0.492458,0.205352 -1.077228,-0.01282 z m -3.423904,-0.508605 c -0.655844,-0.515887 -0.291914,-1.286577 0.534342,-1.13157 0.199508,0.03743 0.425977,0.199468 0.741714,0.530702 0.249983,0.262253 0.454515,0.5213 0.454515,0.57566 0,0.115861 -0.456765,0.203413 -1.068082,0.204728 -0.314785,6.77e-4 -0.495745,-0.04836 -0.662489,-0.17952 z m 2.397834,-0.221715 c -0.05732,-0.361444 0.07009,-1.156997 0.238355,-1.488337 0.283763,-0.558766 1.143156,-0.572274 1.246839,-0.0196 0.09575,0.510371 -0.120504,0.813211 -0.934154,1.308199 -0.452199,0.275098 -0.534365,0.30488 -0.55104,0.199734 z M 41.222595,17.70386 c -0.487394,-0.515347 -0.639754,-0.826484 -0.560433,-1.144466 0.08783,-0.352071 0.289464,-0.511304 0.647467,-0.511304 0.277041,0 0.352911,0.04189 0.498384,0.275166 0.136706,0.219218 0.16752,0.395671 0.151548,0.867834 -0.01932,0.571106 -0.119486,0.973666 -0.242275,0.973666 -0.03234,0 -0.254948,-0.207403 -0.494691,-0.460896 z"
             id="path228" />
        </g>
      </g>
    </g>
  </g>
</svg>
